<?xml version="1.0" encoding="utf-8"?>
<!-- Generator: Adobe Illustrator 24.3.0, SVG Export Plug-In . SVG Version: 6.00 Build 0)  -->
<svg version="1.1" id="Layer_1" xmlns="http://www.w3.org/2000/svg" xmlns:xlink="http://www.w3.org/1999/xlink" x="0px" y="0px"
	 viewBox="0 0 1926 364" style="enable-background:new 0 0 1926 364;" xml:space="preserve">
<style type="text/css">
	.st0{fill-rule:evenodd;clip-rule:evenodd;fill:#7F8080;}
	.st1{fill-rule:evenodd;clip-rule:evenodd;fill:#9412DC;}
</style>
<desc>Created with Sketch.</desc>
<g id="Marca">
	<g id="marca_geekhunter_horizontal_colorida" transform="translate(-538.000000, -895.000000)">
		<g id="marca" transform="translate(593.000000, 945.000000)">
			<path id="geekhunter" class="st0" d="M643.7,190.5c-7.9,0-15.2-1.6-21.8-4.8c-6.6-3.2-12.3-7.6-17-13.1c-4.7-5.6-8.4-12-11-19.3
				c-2.6-7.3-3.9-15.1-3.9-23.3c0-8.7,1.4-16.8,4.1-24.2s6.6-14,11.4-19.7c4.9-5.6,10.7-10.1,17.5-13.3s14.3-4.8,22.5-4.8
				c9.4,0,17.7,2.1,24.7,6.3c7,4.2,12.7,9.8,17.1,16.8v-21h26.7v114c0,8.8-1.6,16.8-4.9,23.8c-3.3,7-7.9,12.9-13.8,17.8
				c-5.9,4.9-13,8.6-21,11.2c-8.1,2.6-16.9,3.9-26.5,3.9c-13.3,0-24.3-2.2-33.3-6.5c-8.9-4.3-16.6-10.5-23-18.4l16.7-16.2
				c4.6,5.6,10.3,10.1,17.3,13.3c6.9,3.2,14.4,4.8,22.3,4.8c4.7,0,9.3-0.6,13.6-1.9c4.3-1.3,8.2-3.3,11.4-6.1
				c3.3-2.7,5.9-6.2,7.8-10.5c1.9-4.3,2.9-9.3,2.9-15.1V169c-4,6.9-9.5,12.1-16.7,15.9C659.6,188.6,651.9,190.5,643.7,190.5
				L643.7,190.5z M654.2,166.1c3.4,0,6.6-0.5,9.6-1.6c3-1.1,5.8-2.5,8.3-4.3c2.5-1.8,4.8-4,6.7-6.4c2-2.4,3.5-5,4.6-7.8v-28.6
				c-2.7-7-7-12.6-12.8-16.9s-11.9-6.4-18.3-6.4c-4.7,0-9,1-12.9,3.1c-3.9,2.1-7.2,4.8-9.9,8.2s-4.8,7.4-6.3,11.8s-2.2,9-2.2,13.7
				c0,4.9,0.8,9.4,2.5,13.7c1.7,4.3,4,8,7,11.2c3,3.2,6.5,5.7,10.5,7.5C645.1,165.1,649.5,166.1,654.2,166.1L654.2,166.1z
				 M797.3,192.1c-9.6,0-18.3-1.6-26.1-4.9s-14.4-7.7-19.9-13.4s-9.7-12.2-12.7-19.7c-3-7.5-4.5-15.3-4.5-23.5
				c0-8.5,1.4-16.6,4.3-24.1c2.9-7.5,7.1-14.2,12.6-19.9c5.5-5.7,12.2-10.2,20-13.6c7.8-3.4,16.6-5,26.4-5c9.8,0,18.5,1.7,26.2,5
				c7.7,3.4,14.2,7.8,19.7,13.5c5.4,5.6,9.5,12.2,12.3,19.7c2.8,7.5,4.2,15.2,4.2,23.3c0,2,0,3.9-0.1,5.7c-0.1,1.8-0.3,3.4-0.6,4.6
				h-92.6c0.5,4.7,1.6,8.9,3.4,12.6c1.8,3.7,4.2,6.8,7.1,9.4c2.9,2.6,6.2,4.6,9.8,5.9c3.7,1.4,7.5,2.1,11.4,2.1
				c6.1,0,11.8-1.5,17.3-4.5c5.4-3,9.1-6.9,11.1-11.8l26.3,7.3c-4.4,9.1-11.5,16.6-21.1,22.5C822.3,189.2,810.7,192.1,797.3,192.1
				L797.3,192.1z M828.4,119.9c-0.8-9-4.1-16.2-9.9-21.6c-5.9-5.4-13-8.1-21.4-8.1c-4.1,0-8,0.7-11.5,2.2c-3.6,1.4-6.7,3.5-9.5,6.1
				c-2.7,2.6-5,5.7-6.7,9.4s-2.8,7.7-3.1,12.1H828.4z M934.4,192.1c-9.6,0-18.3-1.6-26.1-4.9s-14.4-7.7-19.9-13.4
				s-9.7-12.2-12.7-19.7c-3-7.5-4.5-15.3-4.5-23.5c0-8.5,1.4-16.6,4.3-24.1c2.9-7.5,7.1-14.2,12.6-19.9c5.5-5.7,12.2-10.2,20-13.6
				c7.8-3.4,16.6-5,26.4-5c9.8,0,18.5,1.7,26.2,5c7.7,3.4,14.2,7.8,19.7,13.5c5.4,5.6,9.5,12.2,12.3,19.7c2.8,7.5,4.2,15.2,4.2,23.3
				c0,2,0,3.9-0.1,5.7c-0.1,1.8-0.3,3.4-0.6,4.6h-92.6c0.5,4.7,1.6,8.9,3.4,12.6c1.8,3.7,4.2,6.8,7.1,9.4c2.9,2.6,6.2,4.6,9.8,5.9
				c3.7,1.4,7.5,2.1,11.4,2.1c6.1,0,11.8-1.5,17.3-4.5c5.4-3,9.1-6.9,11.1-11.8l26.3,7.3c-4.4,9.1-11.5,16.6-21.1,22.5
				C959.4,189.2,947.8,192.1,934.4,192.1L934.4,192.1z M965.5,119.9c-0.8-9-4.1-16.2-9.9-21.6c-5.9-5.4-13-8.1-21.4-8.1
				c-4.1,0-8,0.7-11.5,2.2c-3.6,1.4-6.7,3.5-9.5,6.1c-2.7,2.6-5,5.7-6.7,9.4s-2.8,7.7-3.1,12.1H965.5z M1097.6,189.8l-34.7-51.9
				l-16.5,16.2v35.6h-30.6V23h30.6v101.2l48-53.9h32.7l-44.8,50.7l48,68.8H1097.6z M1246.2,189.8h-15.5v-66.5
				c0-13.6-2.3-23.7-7-30.4c-4.6-6.7-11.5-10.1-20.5-10.1c-4.4,0-8.8,0.9-13.1,2.6c-4.3,1.8-8.4,4.2-12.2,7.2
				c-3.8,3-7.1,6.6-9.9,10.7s-4.9,8.6-6.3,13.5v72.9h-15.5V23h15.5v74.7c4.9-9,11.5-16.1,19.9-21.3c8.4-5.2,17.4-7.8,27-7.8
				c6.9,0,12.7,1.3,17.5,3.8s8.7,6,11.7,10.5c3,4.5,5.1,9.9,6.5,16.2s2.1,13.3,2.1,20.9V189.8z M1315.2,192.1
				c-12.5,0-21.9-4.3-28.3-12.9c-6.4-8.6-9.6-21.4-9.6-38.5V70.8h15.5v67.2c0,27,9.2,40.4,27.7,40.4c4.6,0,9.1-0.8,13.5-2.3
				c4.4-1.5,8.5-3.7,12.2-6.6c3.7-2.9,7.1-6.3,10.1-10.3c3-4,5.4-8.5,7.2-13.5v-75h15.5v98.9c0,4.3,1.9,6.4,5.7,6.4v13.7
				c-3,0.5-5.2,0.7-6.4,0.7c-3.5,0-6.5-1.1-9-3.2c-2.5-2.1-3.8-4.8-3.8-8v-16.5c-5.3,9.3-12.4,16.5-21.3,21.6
				S1325.7,192.1,1315.2,192.1L1315.2,192.1z M1514.3,189.8h-15.5v-66.5c0-14.2-2.1-24.5-6.2-30.9s-10.5-9.6-19.2-9.6
				c-4.6,0-9.1,0.8-13.7,2.5s-8.8,4-12.8,7.1c-4,3-7.4,6.7-10.4,10.9c-3,4.2-5.2,8.7-6.7,13.6v72.9h-15.5V70.8h14.2v27
				c2.4-4.3,5.4-8.2,9-11.8s7.6-6.7,12-9.3c4.4-2.6,9.1-4.6,14.1-5.9c5-1.4,10.1-2.1,15.4-2.1c6.7,0,12.3,1.2,16.8,3.7
				c4.5,2.4,8.1,5.9,10.9,10.3s4.7,9.8,5.9,16.2s1.8,13.5,1.8,21.3V189.8z M1603.2,184.1c-0.9,0.5-2.2,1.1-4,1.8
				c-1.8,0.8-3.8,1.5-6.1,2.3c-2.3,0.8-4.9,1.4-7.8,2.1s-5.9,0.9-9.1,0.9c-3.4,0-6.6-0.5-9.6-1.4c-3-0.9-5.7-2.3-8-4.2
				s-4.1-4.3-5.5-7.2c-1.4-2.9-2.1-6.2-2.1-10.1V83.1h-16.5V70.8h16.5V30.5h15.5v40.2h27.4v12.3h-27.4V164c0.3,4.4,1.8,7.7,4.6,9.7
				s6,3.1,9.8,3.1c4.4,0,8.3-0.7,11.7-2.2c3.4-1.4,5.5-2.5,6.4-3.1L1603.2,184.1z M1673.6,192.1c-8.7,0-16.7-1.6-24-4.9
				c-7.3-3.3-13.6-7.8-19-13.5c-5.3-5.7-9.5-12.3-12.5-19.8c-3-7.5-4.5-15.5-4.5-24c0-8.4,1.5-16.3,4.5-23.7
				c3-7.4,7.1-13.9,12.5-19.4c5.3-5.6,11.6-10,18.9-13.3c7.2-3.3,15.2-4.9,23.9-4.9c8.7,0,16.6,1.6,23.9,4.9
				c7.2,3.3,13.4,7.7,18.6,13.4c5.2,5.6,9.2,12.1,12.1,19.4c2.9,7.3,4.3,15.1,4.3,23.3c0,1.2,0,2.4-0.1,3.7
				c-0.1,1.2-0.2,2.1-0.3,2.5h-101.7c0.5,6.4,1.9,12.3,4.5,17.7c2.5,5.4,5.7,10.1,9.6,14.1s8.4,7,13.5,9.3
				c5.1,2.2,10.6,3.3,16.3,3.3c4,0,7.8-0.5,11.7-1.6c3.8-1.1,7.3-2.5,10.5-4.3c3.2-1.8,6.1-4.1,8.6-6.7c2.5-2.7,4.5-5.6,5.8-8.8
				l13.5,3.7c-1.8,4.4-4.4,8.4-7.8,12c-3.4,3.6-7.2,6.7-11.7,9.4c-4.4,2.7-9.3,4.7-14.6,6.2C1684.7,191.4,1679.2,192.1,1673.6,192.1
				L1673.6,192.1z M1717.5,124c-0.5-6.4-1.9-12.2-4.5-17.5c-2.5-5.3-5.7-9.8-9.6-13.6c-3.9-3.8-8.4-6.8-13.6-8.9
				c-5.2-2.1-10.7-3.2-16.5-3.2c-5.8,0-11.3,1.1-16.5,3.2c-5.2,2.1-9.7,5.1-13.6,8.9c-3.9,3.8-7,8.4-9.4,13.7
				c-2.4,5.3-3.8,11.1-4.2,17.4H1717.5z M1815.1,84.5c-10.5,0.3-19.7,3.2-27.4,8.7c-7.8,5.5-13.3,13-16.5,22.6v74h-15.5V70.8h14.6
				v28.6c4.1-8.4,9.5-15.3,16.2-20.9c6.7-5.6,13.9-8.3,21.7-8.3h3.9c1.2,0,2.2,0.1,3,0.2V84.5z"/>
			<g id="simbolo">
				<path id="Fill-2" class="st1" d="M467.1,138.1c-0.3-40.1-34-72.5-74.9-72.1c-40.2,0.4-72.8,33-72.7,72.6
					c0.1,40.3,33.5,73.3,74.1,73.1C433.9,211.6,467.3,178.2,467.1,138.1 M125.9,66c-40.5-0.3-74.3,32.4-74.5,72
					c-0.2,39.4,34,73,74,72.9c39.5-0.2,72.9-32.6,73.7-71.6C199.8,99.9,166.3,66.3,125.9,66 M238.6,79.9
					c14.4,28.8,18.9,58.9,10.8,90.5c-15,58.4-69.3,95.7-134.2,92.1c-55.6-3.1-105.6-49.7-112-106.6C-2.3,106.8,2.1,57.3,0.9,8
					C0.8,1.9,9,0,9,0L53.7,0c0,0,8.9,2.3,8.5,8.8c-0.5,7.2-0.1,14.5-0.1,23.4c17-7.5,32.2-13.8,49-15.9c26.2-3.2,51.1,0.9,74.3,13
					c6.7,3.5,11.3,3,17.7-0.2c38.3-18.8,77-18.9,115.2,0.1c7.3,3.6,12.2,2.8,18.9-0.5c86.6-42.5,186,20.8,182.5,115.8
					c-1.8,48.3-33.3,93-79.7,109.6c-51.5,18.4-98.7,9.7-137.2-29.9c-36.6-37.6-43.7-82.6-25.6-131.5c5.7-15.5,5.7-16.2-11-17.3
					C257,74.9,247.8,74.8,238.6,79.9"/>
				<path id="Fill-3" class="st1" d="M88.8,100.9c-13.5,13.3-23.5,35.5-9.4,55.7c7.3-40.5,33.5-57.8,73.5-59.3
					C138.4,81.4,106.8,83.1,88.8,100.9"/>
				<path id="Fill-4" class="st1" d="M357.7,100.9c-13.5,13.3-23.5,35.5-9.4,55.7c7.3-40.5,33.5-57.8,73.5-59.3
					C407.3,81.4,375.7,83.1,357.7,100.9"/>
			</g>
		</g>
	</g>
</g>
</svg>
